<svg xmlns="http://www.w3.org/2000/svg" width="130.684" height="43.684" viewBox="0 0 130.684 43.684"><defs><style>.a{fill:#a6a6a6;}.b{fill:#fff;}</style></defs><g transform="translate(0 0)"><path class="a" d="M120.277,0H10.413c-.4,0-.8,0-1.2,0-.334,0-.666.009-1,.014A14.431,14.431,0,0,0,6.025.209,7.279,7.279,0,0,0,3.949.894,7.031,7.031,0,0,0,2.182,2.181,6.835,6.835,0,0,0,.895,3.951,7.209,7.209,0,0,0,.212,6.03a14.189,14.189,0,0,0-.2,2.186C.006,8.551.005,8.887,0,9.222V34.465c.005.339.006.668.017,1.007a14.189,14.189,0,0,0,.2,2.186,7.194,7.194,0,0,0,.683,2.08A6.779,6.779,0,0,0,2.182,41.5a6.852,6.852,0,0,0,1.768,1.287,7.318,7.318,0,0,0,2.076.689,14.694,14.694,0,0,0,2.188.193c.338.007.669.012,1,.012.4,0,.8,0,1.2,0H120.277c.392,0,.791,0,1.184,0,.333,0,.674,0,1.007-.012a14.5,14.5,0,0,0,2.184-.193,7.431,7.431,0,0,0,2.084-.689A6.856,6.856,0,0,0,128.5,41.5a6.984,6.984,0,0,0,1.29-1.763,7.213,7.213,0,0,0,.676-2.08,14.75,14.75,0,0,0,.2-2.186c0-.339,0-.668,0-1.007.009-.4.009-.791.009-1.195V10.414c0-.4,0-.8-.009-1.192,0-.335,0-.671,0-1.006a14.748,14.748,0,0,0-.2-2.186,7.227,7.227,0,0,0-.676-2.079A7.062,7.062,0,0,0,126.736.894a7.391,7.391,0,0,0-2.084-.685,14.245,14.245,0,0,0-2.184-.193C122.135.011,121.794,0,121.461,0c-.392,0-.791,0-1.184,0Z" transform="translate(0 0)"/><path d="M9.142,42.647c-.333,0-.657,0-.988-.012a13.857,13.857,0,0,1-2.041-.178,6.426,6.426,0,0,1-1.809-.6,5.9,5.9,0,0,1-1.526-1.11,5.811,5.811,0,0,1-1.114-1.525,6.249,6.249,0,0,1-.593-1.81,13.557,13.557,0,0,1-.182-2.048c-.007-.23-.016-1-.016-1V9.141s.01-.755.016-.977A13.509,13.509,0,0,1,1.07,6.12,6.286,6.286,0,0,1,1.663,4.3,5.868,5.868,0,0,1,2.772,2.778,6.078,6.078,0,0,1,4.3,1.662a6.359,6.359,0,0,1,1.806-.594A13.745,13.745,0,0,1,8.157.888L9.143.875H121.375l1,.014a13.526,13.526,0,0,1,2.03.178,6.485,6.485,0,0,1,1.825.6,6.109,6.109,0,0,1,2.637,2.643,6.293,6.293,0,0,1,.585,1.8,14.194,14.194,0,0,1,.19,2.061c0,.309,0,.641,0,.972.009.41.009.8.009,1.192V33.19c0,.4,0,.784-.009,1.174,0,.355,0,.68,0,1.015a13.9,13.9,0,0,1-.187,2.024,6.268,6.268,0,0,1-.59,1.824,5.985,5.985,0,0,1-1.109,1.513,5.911,5.911,0,0,1-1.528,1.117,6.4,6.4,0,0,1-1.822.6,13.7,13.7,0,0,1-2.041.178c-.32.007-.655.012-.98.012l-1.184,0Z" transform="translate(0.08 0.081)"/><g transform="translate(10.89 9.523)"><path class="b" d="M26.132,20.883a5.4,5.4,0,0,1,2.574-4.534,5.532,5.532,0,0,0-4.359-2.356c-1.834-.192-3.612,1.1-4.546,1.1-.953,0-2.391-1.078-3.941-1.046a5.8,5.8,0,0,0-4.885,2.979c-2.112,3.657-.537,9.031,1.487,11.987,1.012,1.447,2.2,3.064,3.743,3.007,1.515-.063,2.081-.966,3.909-.966,1.812,0,2.342.966,3.922.929,1.625-.026,2.65-1.454,3.626-2.915a11.971,11.971,0,0,0,1.658-3.377A5.222,5.222,0,0,1,26.132,20.883Z" transform="translate(-9.972 -8.237)"/><path class="b" d="M22.336,12.532A5.321,5.321,0,0,0,23.553,8.72a5.414,5.414,0,0,0-3.5,1.812A5.063,5.063,0,0,0,18.8,14.2,4.477,4.477,0,0,0,22.336,12.532Z" transform="translate(-9.159 -8.72)"/><g transform="translate(26.708 9.993)"><path class="b" d="M43.027,27.974H37.858L36.617,31.64h-2.19l4.9-13.562H41.6l4.9,13.562H44.268Zm-4.634-1.691h4.1l-2.02-5.949h-.057Z" transform="translate(-34.427 -17.852)"/><path class="b" d="M55.945,26.4c0,3.073-1.645,5.047-4.126,5.047a3.352,3.352,0,0,1-3.111-1.73h-.047v4.9h-2.03V21.451H48.6V23.1h.037a3.507,3.507,0,0,1,3.148-1.748C54.291,21.348,55.945,23.331,55.945,26.4Zm-2.086,0c0-2-1.035-3.318-2.613-3.318-1.551,0-2.594,1.344-2.594,3.318,0,1.992,1.043,3.326,2.594,3.326C52.824,29.722,53.859,28.415,53.859,26.4Z" transform="translate(-33.303 -17.551)"/><path class="b" d="M65.91,26.4c0,3.073-1.645,5.047-4.126,5.047a3.352,3.352,0,0,1-3.111-1.73h-.047v4.9H56.6V21.451h1.964V23.1H58.6a3.507,3.507,0,0,1,3.148-1.748C64.256,21.348,65.91,23.331,65.91,26.4Zm-2.086,0c0-2-1.035-3.318-2.613-3.318-1.551,0-2.594,1.344-2.594,3.318,0,1.992,1.043,3.326,2.594,3.326,1.578,0,2.613-1.306,2.613-3.326Z" transform="translate(-32.386 -17.551)"/><path class="b" d="M71.886,27.88c.15,1.345,1.457,2.228,3.242,2.228,1.711,0,2.941-.883,2.941-2.1,0-1.053-.742-1.683-2.5-2.115l-1.758-.423c-2.49-.6-3.646-1.766-3.646-3.656,0-2.34,2.039-3.947,4.935-3.947,2.866,0,4.83,1.607,4.9,3.947H77.948c-.123-1.353-1.241-2.17-2.876-2.17s-2.754.827-2.754,2.03c0,.959.715,1.523,2.463,1.955L76.274,24c2.782.658,3.939,1.776,3.939,3.759,0,2.537-2.021,4.126-5.235,4.126-3.008,0-5.038-1.552-5.169-4Z" transform="translate(-31.169 -17.871)"/><path class="b" d="M83.639,19.3v2.34h1.88v1.607h-1.88V28.7c0,.847.376,1.241,1.2,1.241a6.343,6.343,0,0,0,.668-.047v1.6a5.574,5.574,0,0,1-1.127.094c-2,0-2.782-.752-2.782-2.669V23.247H80.163V21.64H81.6V19.3Z" transform="translate(-30.216 -17.739)"/><path class="b" d="M86.065,26.4c0-3.111,1.832-5.066,4.689-5.066s4.69,1.955,4.69,5.066-1.814,5.066-4.69,5.066S86.065,29.516,86.065,26.4Zm7.312,0c0-2.134-.978-3.394-2.622-3.394s-2.621,1.269-2.621,3.394c0,2.143.977,3.393,2.621,3.393s2.622-1.25,2.622-3.393Z" transform="translate(-29.672 -17.552)"/><path class="b" d="M96.186,21.451h1.936v1.683h.047a2.358,2.358,0,0,1,2.378-1.786,3.13,3.13,0,0,1,.7.076v1.9a2.837,2.837,0,0,0-.912-.123,2.045,2.045,0,0,0-2.115,2.275v5.865h-2.03Z" transform="translate(-28.74 -17.551)"/><path class="b" d="M110.136,28.436c-.273,1.795-2.021,3.027-4.257,3.027-2.876,0-4.662-1.927-4.662-5.019s1.795-5.113,4.576-5.113c2.736,0,4.456,1.879,4.456,4.877v.7h-6.983v.123a2.575,2.575,0,0,0,2.66,2.8,2.237,2.237,0,0,0,2.283-1.391Zm-6.861-2.951h4.943a2.378,2.378,0,0,0-2.425-2.509,2.5,2.5,0,0,0-2.518,2.509Z" transform="translate(-28.277 -17.552)"/></g></g></g><g transform="translate(38.956 9.214)"><path class="b" d="M38.025,8.732a2.883,2.883,0,0,1,3.066,3.238c0,2.082-1.125,3.278-3.066,3.278H35.671V8.732Zm-1.342,5.595h1.229a2.049,2.049,0,0,0,2.149-2.344,2.054,2.054,0,0,0-2.149-2.33H36.683Z" transform="translate(-35.671 -8.411)"/><path class="b" d="M41.682,12.659a2.33,2.33,0,1,1,4.638,0,2.33,2.33,0,1,1-4.638,0Zm3.64,0c0-1.066-.479-1.689-1.319-1.689s-1.318.623-1.318,1.689.475,1.693,1.318,1.693,1.319-.623,1.319-1.693Z" transform="translate(-35.118 -8.283)"/><path class="b" d="M52.034,15.112H51.027l-1.016-3.622h-.077l-1.012,3.622h-1l-1.356-4.918h.984l.881,3.752h.073l1.011-3.752h.931l1.011,3.752h.077l.877-3.752h.971Z" transform="translate(-34.667 -8.275)"/><path class="b" d="M53.854,10.2h.934v.781h.073a1.472,1.472,0,0,1,1.467-.876,1.6,1.6,0,0,1,1.7,1.829v3.183h-.971v-2.94c0-.79-.343-1.183-1.061-1.183a1.128,1.128,0,0,0-1.174,1.246v2.877h-.971Z" transform="translate(-33.997 -8.284)"/><path class="b" d="M59.094,8.437h.971v6.837h-.971Z" transform="translate(-33.514 -8.437)"/><path class="b" d="M61.219,12.66a2.33,2.33,0,1,1,4.639,0,2.33,2.33,0,1,1-4.639,0Zm3.64,0c0-1.066-.479-1.689-1.319-1.689s-1.318.623-1.318,1.689.475,1.693,1.318,1.693,1.319-.623,1.319-1.693Z" transform="translate(-33.319 -8.283)"/><path class="b" d="M66.4,13.73c0-.885.659-1.4,1.829-1.468l1.332-.077V11.76c0-.519-.343-.813-1.007-.813-.542,0-.917.2-1.025.547h-.94c.1-.845.894-1.386,2.009-1.386,1.233,0,1.928.614,1.928,1.653v3.36h-.934v-.691h-.077a1.655,1.655,0,0,1-1.477.772A1.486,1.486,0,0,1,66.4,13.73Zm3.161-.42V12.9l-1.2.077c-.677.045-.984.276-.984.709s.384.7.912.7a1.159,1.159,0,0,0,1.273-1.075Z" transform="translate(-32.841 -8.283)"/><path class="b" d="M71.348,12.813c0-1.554.8-2.538,2.041-2.538a1.621,1.621,0,0,1,1.508.863h.073v-2.7h.971v6.837h-.93V14.5h-.077a1.707,1.707,0,0,1-1.544.858C72.138,15.355,71.348,14.371,71.348,12.813Zm1,0c0,1.043.492,1.671,1.314,1.671s1.324-.637,1.324-1.666-.511-1.671-1.324-1.671-1.314.632-1.314,1.666Z" transform="translate(-32.385 -8.437)"/><path class="b" d="M79.231,12.659a2.33,2.33,0,1,1,4.638,0,2.33,2.33,0,1,1-4.638,0Zm3.64,0c0-1.066-.479-1.689-1.319-1.689s-1.318.623-1.318,1.689.475,1.693,1.318,1.693S82.871,13.73,82.871,12.659Z" transform="translate(-31.661 -8.283)"/><path class="b" d="M84.669,10.2H85.6v.781h.073a1.472,1.472,0,0,1,1.467-.876,1.6,1.6,0,0,1,1.7,1.829v3.183h-.971v-2.94c0-.79-.343-1.183-1.061-1.183a1.128,1.128,0,0,0-1.174,1.246v2.877h-.971Z" transform="translate(-31.159 -8.284)"/><path class="b" d="M93.663,9.074V10.32h1.065v.817H93.663v2.529c0,.515.212.741.7.741a3.239,3.239,0,0,0,.37-.022v.808a3.184,3.184,0,0,1-.528.05c-1.079,0-1.509-.38-1.509-1.328V11.138h-.781V10.32h.781V9.074Z" transform="translate(-30.492 -8.378)"/><path class="b" d="M95.7,8.437h.962v2.71h.077a1.513,1.513,0,0,1,1.5-.881A1.62,1.62,0,0,1,99.936,12.1v3.175h-.971V12.339c0-.785-.366-1.183-1.052-1.183A1.149,1.149,0,0,0,96.675,12.4v2.872H95.7Z" transform="translate(-30.143 -8.437)"/><path class="b" d="M105.134,13.793A2,2,0,0,1,103,15.215a2.234,2.234,0,0,1-2.272-2.538A2.268,2.268,0,0,1,103,10.108c1.368,0,2.194.935,2.194,2.479v.339H101.72v.054a1.3,1.3,0,0,0,1.31,1.409,1.179,1.179,0,0,0,1.17-.6Zm-3.414-1.585H104.2a1.187,1.187,0,0,0-1.21-1.274,1.258,1.258,0,0,0-1.273,1.274Z" transform="translate(-29.681 -8.283)"/></g></svg>