<svg xmlns="http://www.w3.org/2000/svg" width="42" height="42" viewBox="0 0 42 42"><defs><style>.a{fill:rgba(255,255,255,0);}.b{fill:#fff;fill-rule:evenodd;}</style></defs><g transform="translate(-331 -352)"><rect class="a" width="42" height="42" transform="translate(331 352)"/><path class="b" d="M284.294,844.941H270.706a1.235,1.235,0,1,1,0-2.471h13.588ZM269.471,847.2v17.505a2.47,2.47,0,0,0,2.471,2.471h14.824V847.412H270.706A3.683,3.683,0,0,1,269.471,847.2ZM267,843.706A3.706,3.706,0,0,1,270.706,840h13.588a2.471,2.471,0,0,1,2.471,2.471v2.471a2.471,2.471,0,0,1,2.471,2.471v19.765a2.47,2.47,0,0,1-2.471,2.471H271.941A4.941,4.941,0,0,1,267,864.706Z" transform="translate(73.882 -481.824)"/></g></svg>