<svg xmlns="http://www.w3.org/2000/svg" width="42.242" height="42.242" viewBox="0 0 42.242 42.242"><defs><style>.a{fill:rgba(255,255,255,0);}.b{fill:#553a28;fill-rule:evenodd;}</style></defs><g transform="translate(-55 -352)"><path class="a" d="M0,0H42.242V42.242H0Z" transform="translate(55 352)"/><path class="b" d="M718.363,1340.394a1.242,1.242,0,1,0,1.242,1.242A1.243,1.243,0,0,0,718.363,1340.394Zm-14.909,0a1.242,1.242,0,1,0,1.242,1.242A1.243,1.243,0,0,0,703.454,1340.394Zm11.182,0v-11.182h3.776a1.243,1.243,0,0,1,.97.466l3.679,4.6a1.242,1.242,0,0,1,.272.777v4.1a1.243,1.243,0,0,1-1.242,1.242h-.213a3.728,3.728,0,0,0-7.03,0Zm-14.7,0a3.728,3.728,0,0,1,7.029,0h5.182v-13.667a1.243,1.243,0,0,0-1.242-1.242H699.727a1.243,1.243,0,0,0-1.242,1.242v12.424a1.243,1.243,0,0,0,1.242,1.242ZM696,1326.727a3.727,3.727,0,0,1,3.727-3.727h11.182a3.727,3.727,0,0,1,3.727,3.727h3.776a3.724,3.724,0,0,1,2.91,1.4l3.68,4.6a3.726,3.726,0,0,1,.816,2.328v4.1a3.727,3.727,0,0,1-3.727,3.727h-.213a3.728,3.728,0,0,1-7.03,0h-7.879a3.728,3.728,0,0,1-7.029,0h-.213a3.727,3.727,0,0,1-3.727-3.727Z" transform="translate(-635.03 -961.303)"/></g></svg>