<svg xmlns="http://www.w3.org/2000/svg" width="42.121" height="42.121" viewBox="0 0 42.121 42.121"><defs><style>.a{fill:rgba(255,255,255,0);}.b{fill:#553a28;fill-rule:evenodd;}</style></defs><g transform="translate(-146 -352)"><path class="a" d="M0,0H42.121V42.121H0Z" transform="translate(146 352)"/><g transform="translate(153.239 358.194)"><path class="b" d="M658.063,1043.394a1.3,1.3,0,0,1,1.3,1.3v1.3a3.9,3.9,0,1,0,7.8,0v-1.3a1.3,1.3,0,0,1,2.6,0v1.3a6.5,6.5,0,1,1-12.993,0v-1.3A1.3,1.3,0,0,1,658.063,1043.394Zm-4.279-9.252A3.9,3.9,0,0,1,656.54,1033h13.44a3.9,3.9,0,0,1,2.756,1.142l3.537,3.536a3.9,3.9,0,0,1,1.112,3.24l-2.157,17.25a3.9,3.9,0,0,1-3.868,3.414h-16.2a3.9,3.9,0,0,1-3.868-3.414l-2.157-17.25a3.9,3.9,0,0,1,1.111-3.24Zm21,6.653H651.74l2.131,17.052a1.3,1.3,0,0,0,1.29,1.138h16.2a1.3,1.3,0,0,0,1.29-1.138Zm-18.24-5.2a1.3,1.3,0,0,0-.919.381L653.4,1038.2h19.712l-2.218-2.218a1.3,1.3,0,0,0-.919-.381Z" transform="translate(-649.106 -1033)"/></g></g></svg>