<svg xmlns="http://www.w3.org/2000/svg" width="20.709" height="20.709" viewBox="0 0 20.709 20.709"><defs><style>.a{fill:#fff;}.b{fill:#00a56d;}</style></defs><g transform="translate(-378.291 -564)"><circle class="a" cx="9" cy="9" r="9" transform="translate(380 565)"/><g transform="translate(369.551 649.059)"><path class="b" d="M19.095-64.35A10.425,10.425,0,0,0,29.449-74.7,10.44,10.44,0,0,0,19.085-85.059,10.429,10.429,0,0,0,8.74-74.7,10.431,10.431,0,0,0,19.095-64.35ZM17.7-69.5a1.125,1.125,0,0,1-.9-.5l-2.934-3.614a1.1,1.1,0,0,1-.244-.66.832.832,0,0,1,.832-.843.913.913,0,0,1,.771.426l2.426,3.137,4.72-7.563a.864.864,0,0,1,.731-.467.816.816,0,0,1,.873.782,1.434,1.434,0,0,1-.254.67l-5.167,8.131A.99.99,0,0,1,17.7-69.5Z"/></g></g></svg>