<svg xmlns="http://www.w3.org/2000/svg" width="42" height="42" viewBox="0 0 42 42"><defs><style>.a{fill:rgba(255,255,255,0);}.b{fill:#553a28;fill-rule:evenodd;}</style></defs><g transform="translate(-239.121 -352)"><rect class="a" width="42" height="42" transform="translate(239.121 352)"/><path class="b" d="M127.955,1097.344h15.339l-3.1-6.194,3.1-6.194H127.955ZM126.717,1080a1.239,1.239,0,0,1,1.239,1.239v1.239h15.339a2.477,2.477,0,0,1,2.216,3.585l-2.543,5.087,2.543,5.087a2.477,2.477,0,0,1-2.216,3.585H127.955v7.433h1.239a1.239,1.239,0,1,1,0,2.478h-4.955a1.239,1.239,0,1,1,0-2.478h1.239v-26.016A1.239,1.239,0,0,1,126.717,1080Z" transform="translate(125.911 -721.806)"/></g></svg>