<svg xmlns="http://www.w3.org/2000/svg" width="50.773" height="57.644" viewBox="0 0 50.773 57.644"><defs><style>.a{fill:#4d3a21;}.b{fill:#e89a31;}.c{fill:#d97f2b;}.d{fill:#b65b2b;}</style></defs><g transform="translate(-113.919 -311.46)"><g transform="translate(113.919 311.46)"><path class="a" d="M22.011,13.592a17.608,17.608,0,0,1-3.159-.31,25.951,25.951,0,0,1-3.382-.874A34.037,34.037,0,0,1,8.717,9.3,27.672,27.672,0,0,1,3.109,4.96,15.809,15.809,0,0,1,1.157,2.534,9.4,9.4,0,0,1,0,.052C.472.017.956,0,1.439,0A24.78,24.78,0,0,1,8.808,1.2a31.6,31.6,0,0,1,3.525,1.343,33.635,33.635,0,0,1,3.284,1.7A29.871,29.871,0,0,1,21.06,8.319,15.111,15.111,0,0,1,24.327,12.6a9.145,9.145,0,0,0-2.7-1.919,8.287,8.287,0,0,0-3.511-.866c-.147,0-.294.005-.437.016a3.241,3.241,0,0,0,.621,1.126A6.585,6.585,0,0,0,19.4,12.02a10.184,10.184,0,0,0,2.973,1.567C22.25,13.59,22.127,13.592,22.011,13.592Z" transform="translate(0 14.722)"/><path class="b" d="M4.24,26.98h0A8.9,8.9,0,0,0,4.629,23.6a7.642,7.642,0,0,0-1.076-3.529,5.176,5.176,0,0,0-1.095,2.61,10.743,10.743,0,0,0-.047,3.369A13.777,13.777,0,0,1,1.2,23.3a22.768,22.768,0,0,1-.789-3.316A34.149,34.149,0,0,1,.066,12.5,30.955,30.955,0,0,1,1.319,5.275,17.945,17.945,0,0,1,2.531,2.288,10.138,10.138,0,0,1,4.126,0a23,23,0,0,1,2.9,7.216,29.231,29.231,0,0,1,.6,3.862,31.551,31.551,0,0,1,.1,3.834A28.858,28.858,0,0,1,6.659,21.9,15.174,15.174,0,0,1,4.24,26.98Z" transform="translate(22.085 0)"/><path class="a" d="M2.179,14.15h0A9.829,9.829,0,0,1,0,13.923,20.241,20.241,0,0,1,4.369,8.271a31.494,31.494,0,0,1,6.066-4.376,34.88,34.88,0,0,1,6.53-2.843A20.949,20.949,0,0,1,22.728,0,10.674,10.674,0,0,0,19.8,1.475,6.95,6.95,0,0,0,17.6,3.9a2.98,2.98,0,0,0,.661.069,8.113,8.113,0,0,0,3.612-1.118A11.18,11.18,0,0,0,23.56,1.724,6.423,6.423,0,0,0,24.777.458a10.041,10.041,0,0,1-1.3,2.342A18.591,18.591,0,0,1,21.4,5.173a32.79,32.79,0,0,1-5.808,4.42,36.87,36.87,0,0,1-6.866,3.275,25.573,25.573,0,0,1-3.4.943A16.258,16.258,0,0,1,2.179,14.15Z" transform="translate(0.109 29.293)"/><path class="c" d="M1.69,13.5h0A10.446,10.446,0,0,1,.3,13.414a9.2,9.2,0,0,0,2.843-1.376,6.885,6.885,0,0,0,2.17-2.429,3.277,3.277,0,0,0-.728-.076A8.641,8.641,0,0,0,0,11.246,14,14,0,0,1,1.554,9.141,21.238,21.238,0,0,1,3.632,7.1,31.07,31.07,0,0,1,8.9,3.5,25.937,25.937,0,0,1,20.6,0,10.792,10.792,0,0,1,22.99.25a20.419,20.419,0,0,1-4.122,5.483,28.475,28.475,0,0,1-5.6,4.176C9.352,12.158,5.025,13.5,1.69,13.5Z" transform="translate(27.783 15.133)"/><path class="d" d="M3.639,26.979h0a10.15,10.15,0,0,1-1.515-2.346A18,18,0,0,1,1.015,21.6a31.049,31.049,0,0,1-1-7.279A34.165,34.165,0,0,1,.621,6.836a22.7,22.7,0,0,1,.907-3.289A13.693,13.693,0,0,1,2.834.843a10.733,10.733,0,0,0-.08,3.393A5.215,5.215,0,0,0,3.761,6.909,7.637,7.637,0,0,0,4.961,3.4,8.892,8.892,0,0,0,4.679,0,15.209,15.209,0,0,1,6.923,5.169a28.914,28.914,0,0,1,.833,7.024,31.569,31.569,0,0,1-.234,3.831,29.217,29.217,0,0,1-.732,3.842,22.958,22.958,0,0,1-3.151,7.113Z" transform="translate(21.572 30.665)"/><path class="d" d="M22,13.417a23.732,23.732,0,0,1-6.977-1.11A30.57,30.57,0,0,1,8.6,9.462,29.859,29.859,0,0,1,3.38,5.608,17.681,17.681,0,0,1,0,1.471,9.393,9.393,0,0,0,2.483,3.034,7.743,7.743,0,0,0,5.5,3.7c.146,0,.292-.005.434-.016A4.45,4.45,0,0,0,4.151,1.511,10.84,10.84,0,0,0,1.134,0C4.9.092,9.987,1.7,14.415,4.191a32.021,32.021,0,0,1,3.118,1.993A23.642,23.642,0,0,1,20.2,8.421a15.244,15.244,0,0,1,2.026,2.416,9.137,9.137,0,0,1,1.2,2.528C22.955,13.4,22.475,13.417,22,13.417Z" transform="translate(27.08 29.356)"/></g></g></svg>