<svg xmlns="http://www.w3.org/2000/svg" width="22" height="22" viewBox="0 0 22 22"><defs><style>.a{opacity:0.4;}.b{fill:rgba(255,255,255,0);}.c{fill:#2c2c2c;}</style></defs><g class="a" transform="translate(-342 -366)"><rect class="b" width="22" height="22" transform="translate(342 366)"/><g class="a" transform="translate(334.26 452.059)"><path class="c" d="M19.1-64.349A10.425,10.425,0,0,0,29.45-74.7,10.441,10.441,0,0,0,19.085-85.059,10.43,10.43,0,0,0,8.74-74.7,10.432,10.432,0,0,0,19.1-64.349Zm5.929-10.365a.947.947,0,0,1-.315.69l-3.888,3.878a.915.915,0,0,1-.609.244.836.836,0,0,1-.853-.843.873.873,0,0,1,.264-.619l1.431-1.4,1.381-1.167-2.447.091H14.04a.829.829,0,0,1-.863-.873.834.834,0,0,1,.863-.873h5.949l2.447.1-1.381-1.157-1.431-1.421a.891.891,0,0,1-.264-.609.837.837,0,0,1,.853-.843.86.86,0,0,1,.609.234l3.888,3.888A.9.9,0,0,1,25.024-74.714Z" transform="translate(0 0)"/></g></g></svg>