<svg xmlns="http://www.w3.org/2000/svg" width="21" height="21" viewBox="0 0 21 21"><defs><style>.a{opacity:0.67;}.b{fill:rgba(255,255,255,0);}.c{fill:#2c2c2c;}</style></defs><g class="a" transform="translate(-341.787 -365.787)"><rect class="b" width="21" height="21" transform="translate(341.787 365.787)"/><g transform="translate(345.06 369.631)"><path class="c" d="M15.682-71.176a6.989,6.989,0,0,0,6.942-6.941,7,7,0,0,0-6.948-6.941A6.992,6.992,0,0,0,8.74-78.117,6.993,6.993,0,0,0,15.682-71.176Zm3.974-6.948a.635.635,0,0,1-.211.463l-2.606,2.6a.613.613,0,0,1-.408.163.561.561,0,0,1-.572-.565.585.585,0,0,1,.177-.415l.96-.939.926-.783-1.64.061H12.293a.556.556,0,0,1-.578-.585.559.559,0,0,1,.578-.585h3.988l1.64.068L17-79.417l-.96-.953a.6.6,0,0,1-.177-.408.561.561,0,0,1,.572-.565.576.576,0,0,1,.408.157l2.606,2.606A.6.6,0,0,1,19.656-78.124Z" transform="translate(-8.74 85.059)"/></g></g></svg>